<svg width="28" height="28" viewBox="0 0 28 28" fill="none" xmlns="http://www.w3.org/2000/svg">
<path d="M14.0003 26.8334C21.088 26.8334 26.8337 21.0877 26.8337 14C26.8337 6.91236 21.088 1.16669 14.0003 1.16669C6.91267 1.16669 1.16699 6.91236 1.16699 14C1.16699 21.0877 6.91267 26.8334 14.0003 26.8334Z" fill="white"/>
<mask id="mask0_2486_6333" style="mask-type:luminance" maskUnits="userSpaceOnUse" x="1" y="1" width="26" height="26">
<path d="M26.6004 1.40002H1.40039V26.6H26.6004V1.40002Z" fill="white"/>
</mask>
<g mask="url(#mask0_2486_6333)">
<path d="M14.0008 26.075C20.6696 26.075 26.0758 20.6689 26.0758 14C26.0758 7.33121 20.6696 1.92505 14.0008 1.92505C7.33194 1.92505 1.92578 7.33121 1.92578 14C1.92578 20.6689 7.33194 26.075 14.0008 26.075Z" fill="#374248"/>
</g>
<path d="M19.2498 9.27495H17.4307L16.5362 7.93358C16.4883 7.86175 16.4234 7.80285 16.3473 7.7621C16.2711 7.72135 16.1862 7.7 16.0998 7.69995H11.8998C11.8135 7.7 11.7285 7.72135 11.6523 7.7621C11.5762 7.80285 11.5113 7.86175 11.4634 7.93358L10.5683 9.27495H8.7498C8.33209 9.27495 7.93148 9.44089 7.63611 9.73626C7.34074 10.0316 7.1748 10.4322 7.1748 10.85V18.2C7.1748 18.6177 7.34074 19.0183 7.63611 19.3136C7.93148 19.609 8.33209 19.775 8.7498 19.775H19.2498C19.6675 19.775 20.0681 19.609 20.3635 19.3136C20.6589 19.0183 20.8248 18.6177 20.8248 18.2V10.85C20.8248 10.4322 20.6589 10.0316 20.3635 9.73626C20.0681 9.44089 19.6675 9.27495 19.2498 9.27495ZM16.3623 14.2625C16.3623 14.7297 16.2237 15.1865 15.9642 15.575C15.7046 15.9635 15.3356 16.2663 14.9039 16.4451C14.4722 16.6239 13.9972 16.6707 13.5389 16.5796C13.0806 16.4884 12.6597 16.2634 12.3293 15.933C11.9989 15.6026 11.7739 15.1816 11.6827 14.7234C11.5915 14.2651 11.6383 13.7901 11.8171 13.3584C11.996 12.9267 12.2988 12.5577 12.6873 12.2981C13.0758 12.0385 13.5325 11.9 13.9998 11.9C14.6264 11.9 15.2273 12.1489 15.6703 12.5919C16.1134 13.035 16.3623 13.6359 16.3623 14.2625Z" fill="white"/>
</svg>
