<svg width="24" height="24" viewBox="0 0 24 24" fill="none" xmlns="http://www.w3.org/2000/svg">
<g id="Group 75">
<g id="orginal">
<rect id="Rectangle 948" x="12" y="-4" width="23" height="23" rx="11.5" transform="rotate(45 12 -4)" fill="#374248"/>
<g id="Union">
<path fill-rule="evenodd" clip-rule="evenodd" d="M7.48303 14.9738C6.98403 15.4728 6.98403 16.2818 7.48303 16.7808C7.98203 17.2798 8.79108 17.2798 9.29008 16.7808L12.0003 14.0707L14.7104 16.7808C15.2094 17.2798 16.0185 17.2798 16.5175 16.7808C17.0165 16.2818 17.0165 15.4728 16.5175 14.9738L13.8073 12.2636L16.5183 9.55263C17.0173 9.05363 17.0173 8.24458 16.5183 7.74558C16.0193 7.24658 15.2102 7.24658 14.7112 7.74558L12.0003 10.4566L9.28926 7.74557C8.79026 7.24657 7.98122 7.24657 7.48221 7.74557C6.98321 8.24457 6.98321 9.05362 7.48221 9.55262L10.1932 12.2636L7.48303 14.9738Z" fill="url(#paint0_radial_4880_1703)"/>
<path fill-rule="evenodd" clip-rule="evenodd" d="M7.48303 14.9738C6.98403 15.4728 6.98403 16.2818 7.48303 16.7808C7.98203 17.2798 8.79108 17.2798 9.29008 16.7808L12.0003 14.0707L14.7104 16.7808C15.2094 17.2798 16.0185 17.2798 16.5175 16.7808C17.0165 16.2818 17.0165 15.4728 16.5175 14.9738L13.8073 12.2636L16.5183 9.55263C17.0173 9.05363 17.0173 8.24458 16.5183 7.74558C16.0193 7.24658 15.2102 7.24658 14.7112 7.74558L12.0003 10.4566L9.28926 7.74557C8.79026 7.24657 7.98122 7.24657 7.48221 7.74557C6.98321 8.24457 6.98321 9.05362 7.48221 9.55262L10.1932 12.2636L7.48303 14.9738Z" fill="url(#paint1_linear_4880_1703)"/>
</g>
<path id="Union_2" fill-rule="evenodd" clip-rule="evenodd" d="M7.48303 14.9738C6.98403 15.4728 6.98403 16.2818 7.48303 16.7808C7.98203 17.2798 8.79108 17.2798 9.29008 16.7808L12.0003 14.0707L14.7104 16.7808C15.2094 17.2798 16.0185 17.2798 16.5175 16.7808C17.0165 16.2818 17.0165 15.4728 16.5175 14.9738L13.8073 12.2636L16.5183 9.55263C17.0173 9.05363 17.0173 8.24458 16.5183 7.74558C16.0193 7.24658 15.2102 7.24658 14.7112 7.74558L12.0003 10.4566L9.28926 7.74557C8.79026 7.24657 7.98122 7.24657 7.48221 7.74557C6.98321 8.24457 6.98321 9.05362 7.48221 9.55262L10.1932 12.2636L7.48303 14.9738Z" fill="white"/>
</g>
</g>
<defs>
<radialGradient id="paint0_radial_4880_1703" cx="0" cy="0" r="1" gradientUnits="userSpaceOnUse" gradientTransform="translate(11.2473 11.0079) rotate(104.744) scale(14.7929)">
<stop stop-color="#20BC2F"/>
<stop offset="1" stop-color="#20BC2F" stop-opacity="0"/>
</radialGradient>
<linearGradient id="paint1_linear_4880_1703" x1="16.5179" y1="7.74517" x2="14.761" y2="9.50202" gradientUnits="userSpaceOnUse">
<stop stop-color="white"/>
<stop offset="1" stop-color="white" stop-opacity="0"/>
</linearGradient>
</defs>
</svg>
